<mxfile host="app.diagrams.net" modified="2021-11-04T19:41:03.207Z" agent="5.0 (Windows NT 10.0; Win64; x64) AppleWebKit/537.36 (KHTML, like Gecko) Chrome/95.0.4638.69 Safari/537.36" etag="PSP3i1IG07uzws2D9fzE" version="15.6.8" type="github">
  <diagram id="JtWoORu62oSFt6Ij9DHz" name="Page-1">
    <mxGraphModel dx="677" dy="431" grid="1" gridSize="10" guides="1" tooltips="1" connect="1" arrows="1" fold="1" page="1" pageScale="1" pageWidth="850" pageHeight="1100" math="0" shadow="0">
      <root>
        <mxCell id="0" />
        <mxCell id="1" parent="0" />
        <mxCell id="2sIGeX1ukINf47vbquPl-16" value="" style="edgeStyle=orthogonalEdgeStyle;rounded=0;orthogonalLoop=1;jettySize=auto;html=1;entryX=0.5;entryY=0;entryDx=0;entryDy=0;" edge="1" parent="1" source="2sIGeX1ukINf47vbquPl-1" target="2sIGeX1ukINf47vbquPl-62">
          <mxGeometry relative="1" as="geometry">
            <mxPoint x="263" y="133" as="targetPoint" />
          </mxGeometry>
        </mxCell>
        <mxCell id="2sIGeX1ukINf47vbquPl-1" value="Начало" style="rounded=1;whiteSpace=wrap;html=1;" vertex="1" parent="1">
          <mxGeometry x="188" y="18" width="150" height="90" as="geometry" />
        </mxCell>
        <mxCell id="2sIGeX1ukINf47vbquPl-3" value="Selection_sort(int* arr, int Amount_of_elements)" style="strokeWidth=2;html=1;shape=mxgraph.flowchart.annotation_1;align=left;pointerEvents=1;" vertex="1" parent="1">
          <mxGeometry x="470" y="13" width="50" height="100" as="geometry" />
        </mxCell>
        <mxCell id="2sIGeX1ukINf47vbquPl-4" value="" style="endArrow=none;dashed=1;html=1;rounded=0;exitX=1;exitY=0.5;exitDx=0;exitDy=0;entryX=0;entryY=0.5;entryDx=0;entryDy=0;entryPerimeter=0;" edge="1" parent="1" source="2sIGeX1ukINf47vbquPl-1" target="2sIGeX1ukINf47vbquPl-3">
          <mxGeometry width="50" height="50" relative="1" as="geometry">
            <mxPoint x="288" y="403" as="sourcePoint" />
            <mxPoint x="448" y="63" as="targetPoint" />
          </mxGeometry>
        </mxCell>
        <mxCell id="2sIGeX1ukINf47vbquPl-53" style="edgeStyle=orthogonalEdgeStyle;rounded=0;orthogonalLoop=1;jettySize=auto;html=1;exitX=1;exitY=0.5;exitDx=0;exitDy=0;startArrow=none;startFill=0;endArrow=openThin;endFill=0;" edge="1" parent="1" source="2sIGeX1ukINf47vbquPl-6" target="2sIGeX1ukINf47vbquPl-52">
          <mxGeometry relative="1" as="geometry" />
        </mxCell>
        <mxCell id="2sIGeX1ukINf47vbquPl-60" value="False" style="edgeLabel;html=1;align=center;verticalAlign=middle;resizable=0;points=[];" vertex="1" connectable="0" parent="2sIGeX1ukINf47vbquPl-53">
          <mxGeometry x="-0.7118" y="-3" relative="1" as="geometry">
            <mxPoint x="18" y="-3" as="offset" />
          </mxGeometry>
        </mxCell>
        <mxCell id="2sIGeX1ukINf47vbquPl-59" value="" style="edgeStyle=orthogonalEdgeStyle;rounded=0;orthogonalLoop=1;jettySize=auto;html=1;startArrow=none;startFill=0;endArrow=openThin;endFill=0;entryX=0.5;entryY=0;entryDx=0;entryDy=0;" edge="1" parent="1" source="2sIGeX1ukINf47vbquPl-6" target="2sIGeX1ukINf47vbquPl-65">
          <mxGeometry relative="1" as="geometry">
            <mxPoint x="263" y="633" as="targetPoint" />
            <Array as="points">
              <mxPoint x="268" y="433" />
              <mxPoint x="268" y="433" />
            </Array>
          </mxGeometry>
        </mxCell>
        <mxCell id="2sIGeX1ukINf47vbquPl-61" value="True" style="edgeLabel;html=1;align=center;verticalAlign=middle;resizable=0;points=[];" vertex="1" connectable="0" parent="2sIGeX1ukINf47vbquPl-59">
          <mxGeometry x="-0.2939" y="-1" relative="1" as="geometry">
            <mxPoint x="1" y="-1" as="offset" />
          </mxGeometry>
        </mxCell>
        <mxCell id="2sIGeX1ukINf47vbquPl-6" value="i &amp;lt; &lt;br&gt;Amount_of_elements - 1" style="rhombus;whiteSpace=wrap;html=1;" vertex="1" parent="1">
          <mxGeometry x="185.5" y="338" width="155" height="150" as="geometry" />
        </mxCell>
        <mxCell id="2sIGeX1ukINf47vbquPl-38" value="" style="edgeStyle=orthogonalEdgeStyle;rounded=0;orthogonalLoop=1;jettySize=auto;html=1;startArrow=none;startFill=0;endArrow=openThin;endFill=0;exitX=1;exitY=0.5;exitDx=0;exitDy=0;" edge="1" parent="1" source="2sIGeX1ukINf47vbquPl-65" target="2sIGeX1ukINf47vbquPl-36">
          <mxGeometry relative="1" as="geometry">
            <mxPoint x="323" y="693" as="sourcePoint" />
            <Array as="points" />
          </mxGeometry>
        </mxCell>
        <mxCell id="2sIGeX1ukINf47vbquPl-33" style="edgeStyle=orthogonalEdgeStyle;rounded=0;orthogonalLoop=1;jettySize=auto;html=1;startArrow=none;startFill=0;endArrow=openThin;endFill=0;exitX=0;exitY=0.5;exitDx=0;exitDy=0;" edge="1" parent="1" source="2sIGeX1ukINf47vbquPl-70">
          <mxGeometry relative="1" as="geometry">
            <mxPoint x="203" y="1683" as="sourcePoint" />
            <mxPoint x="263" y="320" as="targetPoint" />
            <Array as="points">
              <mxPoint x="138" y="1263" />
              <mxPoint x="138" y="320" />
            </Array>
          </mxGeometry>
        </mxCell>
        <mxCell id="2sIGeX1ukINf47vbquPl-64" value="" style="edgeStyle=orthogonalEdgeStyle;rounded=0;orthogonalLoop=1;jettySize=auto;html=1;startArrow=none;startFill=0;endArrow=openThin;endFill=0;" edge="1" parent="1" source="2sIGeX1ukINf47vbquPl-20" target="2sIGeX1ukINf47vbquPl-6">
          <mxGeometry relative="1" as="geometry" />
        </mxCell>
        <mxCell id="2sIGeX1ukINf47vbquPl-20" value="i = 0" style="shape=hexagon;perimeter=hexagonPerimeter2;whiteSpace=wrap;html=1;fixedSize=1;" vertex="1" parent="1">
          <mxGeometry x="203" y="220" width="120" height="80" as="geometry" />
        </mxCell>
        <mxCell id="2sIGeX1ukINf47vbquPl-39" value="" style="edgeStyle=orthogonalEdgeStyle;rounded=0;orthogonalLoop=1;jettySize=auto;html=1;startArrow=none;startFill=0;endArrow=openThin;endFill=0;" edge="1" parent="1" source="2sIGeX1ukINf47vbquPl-36" target="2sIGeX1ukINf47vbquPl-37">
          <mxGeometry relative="1" as="geometry" />
        </mxCell>
        <mxCell id="2sIGeX1ukINf47vbquPl-36" value="j = i + 1" style="shape=hexagon;perimeter=hexagonPerimeter2;whiteSpace=wrap;html=1;fixedSize=1;" vertex="1" parent="1">
          <mxGeometry x="408" y="523" width="120" height="80" as="geometry" />
        </mxCell>
        <mxCell id="2sIGeX1ukINf47vbquPl-41" value="" style="edgeStyle=orthogonalEdgeStyle;rounded=0;orthogonalLoop=1;jettySize=auto;html=1;startArrow=none;startFill=0;endArrow=openThin;endFill=0;" edge="1" parent="1" source="2sIGeX1ukINf47vbquPl-37" target="2sIGeX1ukINf47vbquPl-40">
          <mxGeometry relative="1" as="geometry" />
        </mxCell>
        <mxCell id="2sIGeX1ukINf47vbquPl-50" style="edgeStyle=orthogonalEdgeStyle;rounded=0;orthogonalLoop=1;jettySize=auto;html=1;exitX=1;exitY=0.5;exitDx=0;exitDy=0;startArrow=none;startFill=0;endArrow=openThin;endFill=0;entryX=0.5;entryY=0;entryDx=0;entryDy=0;" edge="1" parent="1" source="2sIGeX1ukINf47vbquPl-37" target="2sIGeX1ukINf47vbquPl-69">
          <mxGeometry relative="1" as="geometry">
            <mxPoint x="263" y="1353" as="targetPoint" />
            <Array as="points">
              <mxPoint x="778" y="696" />
              <mxPoint x="778" y="1103" />
              <mxPoint x="263" y="1103" />
            </Array>
          </mxGeometry>
        </mxCell>
        <mxCell id="2sIGeX1ukINf47vbquPl-54" value="False" style="edgeLabel;html=1;align=center;verticalAlign=middle;resizable=0;points=[];" vertex="1" connectable="0" parent="2sIGeX1ukINf47vbquPl-50">
          <mxGeometry x="-0.9166" y="1" relative="1" as="geometry">
            <mxPoint x="-1" as="offset" />
          </mxGeometry>
        </mxCell>
        <mxCell id="2sIGeX1ukINf47vbquPl-74" value="" style="edgeStyle=orthogonalEdgeStyle;rounded=0;orthogonalLoop=1;jettySize=auto;html=1;startArrow=none;startFill=0;endArrow=openThin;endFill=0;" edge="1" parent="1" source="2sIGeX1ukINf47vbquPl-37" target="2sIGeX1ukINf47vbquPl-40">
          <mxGeometry relative="1" as="geometry" />
        </mxCell>
        <mxCell id="2sIGeX1ukINf47vbquPl-76" value="True" style="edgeLabel;html=1;align=center;verticalAlign=middle;resizable=0;points=[];" vertex="1" connectable="0" parent="2sIGeX1ukINf47vbquPl-74">
          <mxGeometry x="-0.274" relative="1" as="geometry">
            <mxPoint as="offset" />
          </mxGeometry>
        </mxCell>
        <mxCell id="2sIGeX1ukINf47vbquPl-37" value="j &amp;lt; Amount_of_elements" style="rhombus;whiteSpace=wrap;html=1;" vertex="1" parent="1">
          <mxGeometry x="393" y="623" width="150" height="145" as="geometry" />
        </mxCell>
        <mxCell id="2sIGeX1ukINf47vbquPl-43" value="" style="edgeStyle=orthogonalEdgeStyle;rounded=0;orthogonalLoop=1;jettySize=auto;html=1;startArrow=none;startFill=0;endArrow=openThin;endFill=0;entryX=0.5;entryY=0;entryDx=0;entryDy=0;" edge="1" parent="1" source="2sIGeX1ukINf47vbquPl-40" target="2sIGeX1ukINf47vbquPl-68">
          <mxGeometry relative="1" as="geometry">
            <mxPoint x="538.0344827586207" y="1202.9999999999998" as="targetPoint" />
            <Array as="points" />
          </mxGeometry>
        </mxCell>
        <mxCell id="2sIGeX1ukINf47vbquPl-58" value="False" style="edgeLabel;html=1;align=center;verticalAlign=middle;resizable=0;points=[];" vertex="1" connectable="0" parent="2sIGeX1ukINf47vbquPl-43">
          <mxGeometry x="-0.3841" y="-2" relative="1" as="geometry">
            <mxPoint x="2" y="1" as="offset" />
          </mxGeometry>
        </mxCell>
        <mxCell id="2sIGeX1ukINf47vbquPl-46" value="" style="edgeStyle=orthogonalEdgeStyle;rounded=0;orthogonalLoop=1;jettySize=auto;html=1;startArrow=none;startFill=0;endArrow=openThin;endFill=0;entryX=0;entryY=0.5;entryDx=0;entryDy=0;" edge="1" parent="1" source="2sIGeX1ukINf47vbquPl-40" target="2sIGeX1ukINf47vbquPl-66">
          <mxGeometry relative="1" as="geometry">
            <mxPoint x="718" y="1023" as="targetPoint" />
          </mxGeometry>
        </mxCell>
        <mxCell id="2sIGeX1ukINf47vbquPl-57" value="True" style="edgeLabel;html=1;align=center;verticalAlign=middle;resizable=0;points=[];" vertex="1" connectable="0" parent="2sIGeX1ukINf47vbquPl-46">
          <mxGeometry x="-0.3316" y="1" relative="1" as="geometry">
            <mxPoint as="offset" />
          </mxGeometry>
        </mxCell>
        <mxCell id="2sIGeX1ukINf47vbquPl-40" value="arr[j] &amp;lt; arr[min]" style="rhombus;whiteSpace=wrap;html=1;" vertex="1" parent="1">
          <mxGeometry x="393" y="813" width="150" height="140" as="geometry" />
        </mxCell>
        <mxCell id="2sIGeX1ukINf47vbquPl-44" style="edgeStyle=orthogonalEdgeStyle;rounded=0;orthogonalLoop=1;jettySize=auto;html=1;entryX=0;entryY=0.5;entryDx=0;entryDy=0;startArrow=none;startFill=0;endArrow=openThin;endFill=0;exitX=0;exitY=0.5;exitDx=0;exitDy=0;" edge="1" parent="1" source="2sIGeX1ukINf47vbquPl-68" target="2sIGeX1ukINf47vbquPl-37">
          <mxGeometry relative="1" as="geometry">
            <mxPoint x="483" y="1237.9655172413793" as="sourcePoint" />
            <Array as="points">
              <mxPoint x="328" y="1043" />
              <mxPoint x="328" y="696" />
            </Array>
          </mxGeometry>
        </mxCell>
        <mxCell id="2sIGeX1ukINf47vbquPl-52" value="Окончание" style="rounded=1;whiteSpace=wrap;html=1;" vertex="1" parent="1">
          <mxGeometry x="408" y="383" width="120" height="60" as="geometry" />
        </mxCell>
        <mxCell id="2sIGeX1ukINf47vbquPl-63" value="" style="edgeStyle=orthogonalEdgeStyle;rounded=0;orthogonalLoop=1;jettySize=auto;html=1;startArrow=none;startFill=0;endArrow=openThin;endFill=0;entryX=0.5;entryY=0;entryDx=0;entryDy=0;" edge="1" parent="1" source="2sIGeX1ukINf47vbquPl-62" target="2sIGeX1ukINf47vbquPl-20">
          <mxGeometry relative="1" as="geometry">
            <mxPoint x="263" y="210" as="targetPoint" />
          </mxGeometry>
        </mxCell>
        <mxCell id="2sIGeX1ukINf47vbquPl-62" value="&#xa;&#xa;&lt;span style=&quot;color: rgb(0, 0, 0); font-family: helvetica; font-size: 12px; font-style: normal; font-weight: 400; letter-spacing: normal; text-align: center; text-indent: 0px; text-transform: none; word-spacing: 0px; background-color: rgb(248, 249, 250); display: inline; float: none;&quot;&gt;int min, temp&lt;/span&gt;&#xa;&#xa;" style="rounded=0;whiteSpace=wrap;html=1;" vertex="1" parent="1">
          <mxGeometry x="203" y="130" width="120" height="60" as="geometry" />
        </mxCell>
        <mxCell id="2sIGeX1ukINf47vbquPl-65" value="&#xa;&#xa;&lt;span style=&quot;color: rgb(0, 0, 0); font-family: helvetica; font-size: 12px; font-style: normal; font-weight: 400; letter-spacing: normal; text-align: center; text-indent: 0px; text-transform: none; word-spacing: 0px; background-color: rgb(248, 249, 250); display: inline; float: none;&quot;&gt;min = i&lt;/span&gt;&#xa;&#xa;" style="rounded=0;whiteSpace=wrap;html=1;" vertex="1" parent="1">
          <mxGeometry x="203" y="533" width="120" height="60" as="geometry" />
        </mxCell>
        <mxCell id="2sIGeX1ukINf47vbquPl-77" style="edgeStyle=orthogonalEdgeStyle;rounded=0;orthogonalLoop=1;jettySize=auto;html=1;exitX=1;exitY=0.5;exitDx=0;exitDy=0;startArrow=none;startFill=0;endArrow=openThin;endFill=0;" edge="1" parent="1" source="2sIGeX1ukINf47vbquPl-66">
          <mxGeometry relative="1" as="geometry">
            <mxPoint x="468" y="993" as="targetPoint" />
            <Array as="points">
              <mxPoint x="748" y="883" />
              <mxPoint x="748" y="993" />
              <mxPoint x="468" y="993" />
            </Array>
          </mxGeometry>
        </mxCell>
        <mxCell id="2sIGeX1ukINf47vbquPl-66" value="&#xa;&#xa;&lt;span style=&quot;color: rgb(0, 0, 0); font-family: helvetica; font-size: 12px; font-style: normal; font-weight: 400; letter-spacing: normal; text-align: center; text-indent: 0px; text-transform: none; word-spacing: 0px; background-color: rgb(248, 249, 250); display: inline; float: none;&quot;&gt;min = j&lt;/span&gt;&#xa;&#xa;" style="rounded=0;whiteSpace=wrap;html=1;" vertex="1" parent="1">
          <mxGeometry x="608" y="853" width="120" height="60" as="geometry" />
        </mxCell>
        <mxCell id="2sIGeX1ukINf47vbquPl-68" value="&#xa;&#xa;&lt;span style=&quot;color: rgb(0, 0, 0); font-family: helvetica; font-size: 12px; font-style: normal; font-weight: 400; letter-spacing: normal; text-align: center; text-indent: 0px; text-transform: none; word-spacing: 0px; background-color: rgb(248, 249, 250); display: inline; float: none;&quot;&gt;j++&lt;/span&gt;&#xa;&#xa;" style="rounded=0;whiteSpace=wrap;html=1;" vertex="1" parent="1">
          <mxGeometry x="408" y="1013" width="120" height="60" as="geometry" />
        </mxCell>
        <mxCell id="2sIGeX1ukINf47vbquPl-71" value="" style="edgeStyle=orthogonalEdgeStyle;rounded=0;orthogonalLoop=1;jettySize=auto;html=1;startArrow=none;startFill=0;endArrow=openThin;endFill=0;" edge="1" parent="1" source="2sIGeX1ukINf47vbquPl-69" target="2sIGeX1ukINf47vbquPl-70">
          <mxGeometry relative="1" as="geometry" />
        </mxCell>
        <mxCell id="2sIGeX1ukINf47vbquPl-72" value="" style="edgeStyle=orthogonalEdgeStyle;rounded=0;orthogonalLoop=1;jettySize=auto;html=1;startArrow=none;startFill=0;endArrow=openThin;endFill=0;" edge="1" parent="1" source="2sIGeX1ukINf47vbquPl-69" target="2sIGeX1ukINf47vbquPl-70">
          <mxGeometry relative="1" as="geometry" />
        </mxCell>
        <mxCell id="2sIGeX1ukINf47vbquPl-69" value="&#xa;&#xa;&lt;span style=&quot;color: rgb(0, 0, 0); font-family: helvetica; font-size: 12px; font-style: normal; font-weight: 400; letter-spacing: normal; text-align: center; text-indent: 0px; text-transform: none; word-spacing: 0px; background-color: rgb(248, 249, 250); display: inline; float: none;&quot;&gt;temp = arr[i]&lt;/span&gt;&lt;br style=&quot;color: rgb(0, 0, 0); font-family: helvetica; font-size: 12px; font-style: normal; font-weight: 400; letter-spacing: normal; text-align: center; text-indent: 0px; text-transform: none; word-spacing: 0px; background-color: rgb(248, 249, 250);&quot;&gt;&lt;span style=&quot;color: rgb(0, 0, 0); font-family: helvetica; font-size: 12px; font-style: normal; font-weight: 400; letter-spacing: normal; text-align: center; text-indent: 0px; text-transform: none; word-spacing: 0px; background-color: rgb(248, 249, 250); display: inline; float: none;&quot;&gt;arr[i] = arr[min]&lt;/span&gt;&lt;br style=&quot;color: rgb(0, 0, 0); font-family: helvetica; font-size: 12px; font-style: normal; font-weight: 400; letter-spacing: normal; text-align: center; text-indent: 0px; text-transform: none; word-spacing: 0px; background-color: rgb(248, 249, 250);&quot;&gt;&lt;span style=&quot;color: rgb(0, 0, 0); font-family: helvetica; font-size: 12px; font-style: normal; font-weight: 400; letter-spacing: normal; text-align: center; text-indent: 0px; text-transform: none; word-spacing: 0px; background-color: rgb(248, 249, 250); display: inline; float: none;&quot;&gt;arr[min] = temp&lt;/span&gt;&#xa;&#xa;" style="rounded=0;whiteSpace=wrap;html=1;" vertex="1" parent="1">
          <mxGeometry x="203" y="1143" width="120" height="60" as="geometry" />
        </mxCell>
        <mxCell id="2sIGeX1ukINf47vbquPl-70" value="&#xa;&#xa;&lt;span style=&quot;color: rgb(0, 0, 0); font-family: helvetica; font-size: 12px; font-style: normal; font-weight: 400; letter-spacing: normal; text-align: center; text-indent: 0px; text-transform: none; word-spacing: 0px; background-color: rgb(248, 249, 250); display: inline; float: none;&quot;&gt;i++&lt;/span&gt;&#xa;&#xa;" style="rounded=0;whiteSpace=wrap;html=1;" vertex="1" parent="1">
          <mxGeometry x="203" y="1233" width="120" height="60" as="geometry" />
        </mxCell>
      </root>
    </mxGraphModel>
  </diagram>
</mxfile>
